/* XPM */
static char *_7b3c6e402bf419dc9da3d60d752fba5WTULnpKzOIdl53De[] = {
/* columns rows colors chars-per-pixel */
"16 16 26 1 ",
"  c None",
". c #170625",
"X c #460219",
"o c #591228",
"O c #722238",
"+ c #5B4A0E",
"@ c #5C4B0E",
"# c #45411B",
"$ c #45421B",
"% c #756C25",
"& c #766D25",
"* c #FC0E3D",
"= c #FC0F3E",
"- c #FF2B59",
"; c #FF2C59",
": c #FF416C",
"> c #FF426C",
", c #FF426D",
"< c #9E9313",
"1 c #9E9415",
"2 c #BCCB1B",
"3 c #FF7591",
"4 c #FF7592",
"5 c #BAAE89",
"6 c #CED0A0",
"7 c #F6FED2",
/* pixels */
"                ",
"             .. ",
"           ..>5.",
"         ..44*5.",
"       ..44>>*5.",
"     ..44>>4>*6.",
" ....44>>>>O-*6.",
".16*4>>>>4>>*6@.",
".@+6=>>4>o>-=6&.",
".@16=->X>--*6+. ",
".12+7=---==6&.  ",
".&+1+7**=66+.   ",
" ..&&$766+&.    ",
"   ..&$&+..     ",
"     ....       ",
"                "
};
