/* XPM */
static char *c64f29b46ff8419ec9afd0cf49f278d9vb7f87uaL2joXXbZ[] = {
/* columns rows colors chars-per-pixel */
"16 16 18 1 ",
"  c None",
". c #170625",
"X c #1F2B40",
"o c #3B3B51",
"O c #CE0A19",
"+ c #FF2E3E",
"@ c #867B35",
"# c #F7460E",
"$ c #FF7135",
"% c #8B7F7E",
"& c #FF9435",
"* c #FFB635",
"= c #C2C04E",
"- c #F6FE6D",
"; c #FF8F91",
": c #FFBBB5",
"> c #DFD9C8",
", c #FFFEE8",
/* pixels */
"                ",
"                ",
"    ........    ",
"   .,>,,>,>,.   ",
"  .,>--=@@@>,.  ",
"  .>@==@-==@>.  ",
"  .>#$&*,,,:,.  ",
"  .,##$&,,:+>.  ",
"  .%,##$;+O>%.  ",
"  ..%>,>,,>%..  ",
"  ............  ",
"  ....X.X.....  ",
"  .....XoX....  ",
"   .....X....   ",
"    ...X....    ",
"                "
};
