/* XPM */
static char *_e7c414752074905e9388c6f760164d8k0R9kfLt8nbTQNvS[] = {
/* columns rows colors chars-per-pixel */
"16 16 3 1 ",
"  c #FF707E",
". c #808080",
"X c white",
/* pixels */
"X    XX    X    ",
"X    XX    X    ",
"XXXXXXXXXXXXXXXX",
"  X    XX    X  ",
"  X    XX    X  ",
"XXXXXXXXXXXXXXXX",
"X    XX    X    ",
"X    XX    X    ",
"XXXXXXXXXXXXXXXX",
"  X    XX    X  ",
"  X    XX    X  ",
"XXXXXXXXXXXXXXXX",
"X    XX    X    ",
"X    XX    X    ",
"................",
"................"
};
